# xmcd
#
# Track frame offsets: 
#        183
#        14415
#        27558
#        47658
#        63195
#        73333
#        89178
#        103408
#        117233
#        131958
#        149258
#        167720
#        182083
#        193930
#        211095
#        227508
#        242558
#        255695
#        267883
#        281720
#
# Disc length: 3902 seconds
#
# Revision: 0
# Processed by: cddbd v1.5.2PL0 Copyright (c) Steve Scherf et al.
# Submitted via: ExactAudioCopyFreeDBPlugin 1.0
#
DISCID=390f3c14
DTITLE=Louisiana Playboys - Saturday Night Special
DYEAR=1984
DGENRE=Cajun
TTITLE0=Wagonwheel Special
TTITLE1=Te Petite and Te Meon
TTITLE2=Mathilda
TTITLE3=Saturday Night Special
TTITLE4=Canton Two Step
TTITLE5=Hathaway One Step
TTITLE6=I Don't Care
TTITLE7=Think About Me Baby
TTITLE8=Lacassine Special
TTITLE9=Zydeco Et Pas Sale
TTITLE10=The Cajun Blues
TTITLE11=Lucille
TTITLE12=Steel Guitar Rag
TTITLE13=Accordion Waltz
TTITLE14=Musicians Waltz
TTITLE15=Sugar Bee
TTITLE16=Lafayette
TTITLE17=Jole Blon
TTITLE18=Maggie Thatcher, Won't Give Me A Hand
TTITLE19=Louisiana Playboys Theme
EXTD=
EXTT0=
EXTT1=
EXTT2=
EXTT3=
EXTT4=
EXTT5=
EXTT6=
EXTT7=
EXTT8=
EXTT9=
EXTT10=
EXTT11=
EXTT12=
EXTT13=
EXTT14=
EXTT15=
EXTT16=
EXTT17=
EXTT18=
EXTT19=
PLAYORDER=
